<svg width="1024" height="1024" viewBox="0 0 1024 1024" fill="none" xmlns="http://www.w3.org/2000/svg">
<path d="M131.148 818.44H52L280.919 195H358.849L587.769 818.44H508.621L322.32 293.63H317.449L131.148 818.44Z" fill="white"/>
<path d="M963.476 455.578L898.941 473.843C894.882 463.087 888.895 452.636 880.98 442.489C873.268 432.139 862.715 423.615 849.321 416.918C835.927 410.221 818.778 406.872 797.875 406.872C769.26 406.872 745.415 413.468 726.338 426.659C707.464 439.647 698.027 456.187 698.027 476.279C698.027 494.137 704.522 508.242 717.51 518.592C730.498 528.942 750.793 537.567 778.393 544.467L847.799 561.514C889.605 571.662 920.757 587.187 941.254 608.09C961.751 628.79 972 655.477 972 688.151C972 714.939 964.288 738.886 948.865 759.992C933.644 781.098 912.335 797.74 884.938 809.916C857.54 822.093 825.678 828.181 789.352 828.181C741.66 828.181 702.188 817.831 670.935 797.131C639.681 776.431 619.894 746.192 611.574 706.416L679.763 689.368C686.257 714.533 698.535 733.407 716.597 745.989C734.862 758.572 758.707 764.863 788.134 764.863C821.62 764.863 848.205 757.76 867.89 743.554C887.779 729.145 897.723 711.895 897.723 691.804C897.723 675.568 892.041 661.971 880.676 651.012C869.311 639.85 851.858 631.53 828.317 626.05L750.387 607.785C707.566 597.638 676.11 581.91 656.018 560.601C636.13 539.089 626.186 512.199 626.186 479.932C626.186 453.549 633.593 430.211 648.408 409.916C663.426 389.622 683.821 373.691 709.595 362.123C735.572 350.556 764.998 344.772 797.875 344.772C844.146 344.772 880.473 354.919 906.855 375.213C933.441 395.507 952.315 422.296 963.476 455.578Z" fill="white"/>
<path d="M445.944 641.88L422.17 574.909H217.598L193.824 641.88H445.944Z" fill="white"/>
</svg>
